<?xml version="1.0" encoding="UTF-8"?>
<svg width="150px" height="40px" viewBox="0 0 150 40" version="1.1" xmlns="http://www.w3.org/2000/svg" xmlns:xlink="http://www.w3.org/1999/xlink">
    <!-- Generator: Sketch 55.2 (78181) - https://sketchapp.com -->
    <title>分组</title>
    <desc>Created with Sketch.</desc>
    <g id="1期" stroke="none" stroke-width="1" fill="none" fill-rule="evenodd">
        <g id="牛" transform="translate(5.000000, 8.000000)">
            <polyline id="Fill-1" fill="#D88212" points="24.1247009 22.0829407 26.4660005 21.1686866 23.5784158 19.9128653"></polyline>
            <polygon id="Fill-2" fill="#EF903A" points="25.5150178 16.2544252 23.5784612 19.9128105 26.4660459 21.1687232"></polygon>
            <polygon id="Fill-3" fill="#F7AA2F" points="25.5150178 16.2544252 31.4872928 17.3288745 31.8672501 12.510785"></polygon>
            <polygon id="Fill-4" fill="#F49E2C" points="31.867232 12.5108124 35.7938205 16.4789085 31.4872747 17.3288106"></polygon>
            <polygon id="Fill-5" fill="#EF9818" points="31.867232 12.5108124 27.0599777 9.2640057 25.5149996 16.2544526"></polygon>
            <polygon id="Fill-6" fill="#7A4205" points="23.7589705 24.110246 27.8193839 24.4278069 26.4659733 21.1686775 24.1246737 22.0829315"></polygon>
            <polygon id="Fill-7" fill="#FCBE45" points="31.867232 12.5108124 35.7938205 11.9404077 30.6085156 8.91668775"></polygon>
            <polygon id="Fill-8" fill="#FCD37A" points="35.7937752 11.9404077 35.7937752 16.4789085 31.8671866 12.5108124"></polygon>
            <polygon id="Fill-9" fill="#D6760D" points="31.4872656 17.3288289 25.5149906 16.2543796 26.1882912 19.733766"></polygon>
            <polygon id="Fill-10" fill="#AA6007" points="27.7346312 19.0319373 26.4660187 21.1686958 26.1882912 19.733693"></polygon>
            <polygon id="Fill-11" fill="#0B7DAF" points="13.0724921 19.6164356 16.2849244 17.9941276 11.2174652 17.1426737"></polygon>
            <polygon id="Fill-12" fill="#023978" points="18.5512948 23.7815856 21.8432594 23.7815856 19.9410215 21.0335293 17.9290183 22.2713686"></polygon>
            <polygon id="Fill-13" fill="#0D3C63" points="34.2322551 20.0402 35.2158769 17.7968272 35.7938478 16.4788446 31.4873019 17.328838"></polygon>
            <polygon id="Fill-14" fill="#0063BA" points="31.8137202 23.1519041 31.4872384 17.3288289 34.2322823 20.0401908"></polygon>
            <polygon id="Fill-15" fill="#0B7FCE" points="29.8011722 22.6356007 30.6358072 20.3234033 31.6455766 20.1536237"></polygon>
            <polygon id="Fill-16" fill="#023978" points="28.0711998 22.2230636 30.0948242 19.7337843 30.6358435 20.3233577 29.8012085 22.6356463"></polygon>
            <polygon id="Fill-17" fill="#025A96" points="31.8137202 23.1519041 29.8011722 22.635628 31.6455766 20.1535598"></polygon>
            <polygon id="Fill-18" fill="#4AA5D3" points="35.7937752 11.9404077 35.7937752 16.4789085 39.8824244 14.5785636"></polygon>
            <polygon id="Fill-19" fill="#085E9E" points="46.4781744 19.459289 50.3886023 19.3800585 47.5511338 18.2914609"></polygon>
            <polygon id="Fill-20" fill="#045A8E" points="46.1725925 17.0062385 47.5358992 16.3198177 44.498783 15.4456353"></polygon>
            <polygon id="Fill-21" fill="#1A71C0" points="43.914139 18.2914518 46.4781471 19.4592799 47.5511066 18.2914518 46.1725471 17.0062385 44.4987376 15.4456353"></polygon>
            <polygon id="Fill-22" fill="#044C70" points="35.7937752 16.4788811 39.8824244 14.5786275 38.7200365 16.6377072"></polygon>
            <polygon id="Fill-23" fill="#0063BA" points="39.8824425 14.5786001 37.7870938 2.29833202 35.7937933 11.9404442"></polygon>
            <polygon id="Fill-24" fill="#1D99DD" points="39.8824425 14.5786001 43.6954525 10.7037915 37.7870938 2.29833202"></polygon>
            <polygon id="Fill-25" fill="#0B69AF" points="39.8824425 14.5786001 44.4987648 15.4456627 44.6258712 13.1676039 43.6954525 10.7037915"></polygon>
            <polygon id="Fill-26" fill="#1A71C0" points="39.8824425 14.5786001 36.7867665 19.4169537 37.8381179 21.1686958 41.0181381 17.4524394"></polygon>
            <polygon id="Fill-27" fill="#2CA4E4" points="42.9628385 19.8815382 41.0181108 17.4525033 37.8380907 21.1687597"></polygon>
            <polygon id="Fill-28" fill="#2CA4E4" points="39.8824425 14.5786001 44.4987648 15.4456627 41.0181381 17.4524394"></polygon>
            <polygon id="Fill-29" fill="#60A0DF" points="42.9628385 19.8815382 43.914139 18.2914518 41.0181108 17.4525033"></polygon>
            <polygon id="Fill-30" fill="#9CC9FA" points="44.498783 15.4456627 41.0181562 17.4524394 43.9141844 18.2914792"></polygon>
            <polygon id="Fill-31" fill="#F21414" points="31.8505538 0 28.9247464 1.22031371 37.7871483 2.2983229"></polygon>
            <polygon id="Fill-32" fill="#1D99DD" points="37.7871301 2.29831377 35.7937388 11.9404259 30.6085247 8.91670601"></polygon>
            <polygon id="Fill-33" fill="#C10C0C" points="28.924701 1.22024981 30.6084974 8.91665124 37.7871029 2.29835028"></polygon>
            <polygon id="Fill-34" fill="#B71111" points="12.5008856 6.20478722 10.5870267 8.08185589 7.9019043 8.93257949 7.82836417 8.12804325"></polygon>
            <polygon id="Fill-35" fill="#C90505" points="5.59564067 8.12807063 5.04327264 8.93251559 7.90189522 8.93251559 7.82835509 8.12807063"></polygon>
            <polygon id="Fill-36" fill="#A50404" points="5.04322724 8.93256123 3.17666999 5.67927372 4.40479003 5.68593711 5.59559527 8.12811627"></polygon>
            <polygon id="Fill-37" fill="#C90505" points="3.17666091 5.6793011 8.77342738 5.70905817 7.67531901 4.72524927 4.43909968 4.99361058"></polygon>
            <polygon id="Fill-38" fill="#991111" points="11.2174562 17.1427103 7.08622631 12.1069195 5.54197453 17.7042609"></polygon>
            <polygon id="Fill-39" fill="#7F0808" points="7.10538306 12.1069195 3.97856601 16.8413971 5.56113128 17.7042609"></polygon>
            <polygon id="Fill-40" fill="#720000" points="0 22.8316048 0.78742405 24.6454169 3.60446468 24.6454169 2.17678762 22.0242389"></polygon>
            <polygon id="Fill-41" fill="#991111" points="0 22.8404772 2.17678762 22.0329287 3.60446468 20.4866564 3.9786114 16.8414154"></polygon>
            <polygon id="Fill-42" fill="#9E2533" points="12.5008856 6.20478722 10.5870267 8.08185589 9.4103847 10.3165571 14.2789224 5.21714459"></polygon>
            <polygon id="Fill-43" fill="#DB0D03" points="14.2789224 5.21711721 15.4491182 9.23295246 9.4103847 10.3165297"></polygon>
            <polygon id="Fill-44" fill="#AD0707" points="9.41042102 10.3165479 15.4490638 15.6081948 17.5086411 13.2855003 15.4490638 9.23297072"></polygon>
            <polygon id="Fill-45" fill="#DB2C2C" points="7.08622631 12.1069195 9.41045734 10.3165662 11.2174562 17.1427103"></polygon>
            <polygon id="Fill-46" fill="#C62626" points="9.41042102 10.3165479 11.2174199 17.142692 15.4490638 15.6081948"></polygon>
            <polygon id="Fill-47" fill="#025A96" points="11.2174562 17.1427103 15.4491001 15.6081217 16.2849153 17.9940728"></polygon>
            <polygon id="Fill-48" fill="#0D3C63" points="16.2849517 17.9940819 21.8017319 14.7948318 17.5087138 13.2855277 15.4490456 15.6081309"></polygon>
            <polygon id="Fill-49" fill="#CA0000" points="14.2789224 5.21711721 18.625416 5.70190187 15.4491182 9.23295246"></polygon>
            <polygon id="Fill-50" fill="#DB0D03" points="17.5086684 13.2855277 18.6253887 5.70185623 15.449091 9.2329981"></polygon>
            <polygon id="Fill-51" fill="#B20808" points="18.6253706 5.70185623 21.9812515 9.76095789 17.5086502 13.2855277"></polygon>
            <polygon id="Fill-52" fill="#D30000" points="22.8419796 4.72524015 30.6084521 8.91669688 28.9247464 1.22029545"></polygon>
            <polygon id="Fill-53" fill="#C10C0C" points="21.9812424 9.76093964 18.6253615 5.70183797 22.8419342 4.72524015 30.6084974 8.91669688"></polygon>
            <polygon id="Fill-54" fill="#991111" points="3.97856601 16.8414154 3.60441929 20.4867477 5.56113128 17.7042791"></polygon>
            <polygon id="Fill-55" fill="#025A96" points="13.0724921 19.6164356 17.9290455 22.2713869 16.2849244 17.9941276"></polygon>
            <polygon id="Fill-56" fill="#0B7FCE" points="16.2849517 17.9940819 17.9290727 22.2713413 19.9409852 21.0335019"></polygon>
            <polygon id="Fill-57" fill="#D31111" points="21.9812424 9.76093964 17.5086411 13.2855094 21.8016593 14.7948135"></polygon>
            <polygon id="Fill-58" fill="#E50000" points="21.8017046 14.7948501 27.060005 9.26396006 21.9812878 9.76097615"></polygon>
            <polygon id="Fill-59" fill="#E06F1E" points="27.060005 9.26397831 21.8017046 14.7948683 25.5150269 16.2544252"></polygon>
            <polygon id="Fill-60" fill="#F7AA2F" points="27.060005 9.26397831 31.8672592 12.510785 30.6084521 8.91666037"></polygon>
        </g>
        <path d="M71,11 L71,28 L69,28 L69,11 L71,11 Z M71.4367816,29.2695035 L71.4367816,10 L75,10 L75,29.9326241 L72.9885057,32 L70,32 L70,29.2695035 L71.4367816,29.2695035 Z M68,13.9488536 L67.0882353,14.4761905 L67.0882353,30.2151675 L65.6176471,32 L61.2941176,32 L61.2941176,29.3633157 L63.0588235,29.3633157 L63.0588235,24.292769 L61,25.3068783 L61,21.696649 L63.0588235,20.6825397 L63.0588235,16.6666667 L61.0882353,17.7213404 L61.0882353,14.1111111 L62.9117647,13.0970018 L61.4705882,9 L65.7352941,9 L66.5,11.1499118 L68,10.29806 L68,13.9488536 Z M83.5632458,32 L79.6849642,32 L79.6849642,17.28 L78.9403341,17.28 L78.9403341,31.24 L75.2171838,31.24 L75.2171838,14.48 L79.6849642,14.48 L79.6849642,11.84 L75,11.84 L75,9 L88,9 L88,11.84 L83.5632458,11.84 L83.5632458,14.48 L87.9689737,14.48 L87.9689737,31.36 L83.8735084,29.8 L83.8735084,27.08 L84.4319809,27.32 L84.4319809,17.28 L83.5632458,17.28 L83.5632458,32 Z M109,20 L111.242424,13 L115,13 L112.757576,20 L109,20 Z M99,20 L95.1042654,20 L93,13 L96.8957346,13 L99,20 Z M106.178853,32 L102.055118,32 L102.055118,25.1080139 L91,25.1080139 L91,22.2630662 L102.055118,22.2630662 L102.055118,11.8449477 L91.9651294,11.8449477 L91.9651294,9 L116.151856,9 L116.151856,11.8449477 L106.178853,11.8449477 L106.178853,22.2630662 L117,22.2630662 L117,25.1080139 L106.178853,25.1080139 L106.178853,32 Z M125,23 L125,30 L141,30 L141,23 L125,23 Z M121,18 L124.302433,10 L129.169177,10 L126.996524,15.2156863 L141.075319,15.2156863 L139.771727,11.4117647 L143.74044,11.4117647 L146,18 L121,18 Z M145,19 L145,32 L127.700124,32 L126.104089,30.578125 L126.104089,32 L122,32 L122,19 L145,19 Z" id="狮平台" fill="#FBFCFC" fill-rule="nonzero"></path>
    </g>
</svg>